<svg xmlns="http://www.w3.org/2000/svg" viewBox="0 0 208.02 140.16"><defs><style>.cls-1{fill:#54c8e8;}</style></defs><title>Asset 1</title><g id="Layer_2" data-name="Layer 2"><g id="Layer_1-2" data-name="Layer 1"><path d="M48,42C48,55.73,37.54,66.7,23.8,66.7,9.64,66.7,0,55.89,0,41.56V0H9.64V25.89a19.1,19.1,0,0,1,15.75-7.62C38.38,18.27,48,28.74,48,42m-9.72.5c0-8.71-5.87-15.41-14.33-15.41S9.22,33.85,9.22,42.65C9.22,51.28,15.33,58,24,58c8.46,0,14.33-6.87,14.33-15.51"/><path d="M50.7,42.48a24.31,24.31,0,0,1,48.61,0c0,13.58-10.39,24.22-24.39,24.22A23.76,23.76,0,0,1,50.7,42.48m38.89,0c0-8.63-6-15.41-14.67-15.41-8.46,0-14.5,6.78-14.5,15.41S66.46,58,74.92,58c8.63,0,14.67-6.79,14.67-15.51"/><path d="M149.72,37.88V65.36H139.67V40.14c0-8.47-4.28-13.41-11.48-13.41-7.46,0-13.24,5.78-13.24,14.83v23.8H104.89V19.52h9.55v7.13c2.35-4.53,8.3-8.38,15.68-8.38,12,0,19.6,7.54,19.6,19.61"/><path d="M49.24,114.68v8.21a11.93,11.93,0,0,1-6,1.43c-5.7,0-10.22-4.11-10.72-10.39a16.17,16.17,0,0,1-2.6,3.94,21.27,21.27,0,0,1-15.5,6.45C6,124.32.14,119,.05,111.5a11.47,11.47,0,0,1,3.35-8.63c3.61-3.61,9.56-5,15.09-6.12,5.36-1.09,10.39-1.84,12.65-4.11a3.68,3.68,0,0,0,1.09-2.76c0-2.93-2.85-5.28-10.06-5.28s-15,2.93-20,6V81.08a44,44,0,0,1,20.11-5.2c13.32,0,19.19,5.37,19.19,14.75v20.11c0,3.36,2.18,4.78,4.36,4.78a6.84,6.84,0,0,0,3.43-.84M32.82,99.77c-1.93,1.92-5.78,2.68-9.81,3.43-4.35.84-8.88,1.68-11.14,3.94a5.28,5.28,0,0,0-1.51,3.69c0,3.18,2.93,5.28,6.62,5.28a15.8,15.8,0,0,0,10.89-5,17,17,0,0,0,4.95-11.39"/><path d="M98.38,77.14v63H88.66V117.87a19.61,19.61,0,0,1-15,6.45c-13.15,0-23-10.56-23-24.13s9.72-24.31,22.88-24.31a19.49,19.49,0,0,1,16,7.63V77.14Zm-8.46,23.21c0-8.88-6.28-15.58-14.92-15.58-8.46,0-14.49,6.62-14.49,15.42s6,15.25,14.49,15.25c8.64,0,14.92-6.46,14.92-15.09"/><path d="M105,101.44V77.14H115v25c0,8,3.77,13.32,12,13.32,8.38,0,12-5.27,12-13.32v-25h10.05v24.39c0,14.07-7.79,22.79-22,22.79-14.08,0-22-8.8-22-22.88"/><path d="M202.89,114.68v8.21a11.93,11.93,0,0,1-5.95,1.43c-5.7,0-10.23-4.11-10.73-10.39a16.17,16.17,0,0,1-2.6,3.94,21.27,21.27,0,0,1-15.5,6.45c-8.46,0-14.33-5.37-14.41-12.82a11.43,11.43,0,0,1,3.35-8.63c3.6-3.61,9.55-5,15.08-6.12,5.37-1.09,10.39-1.84,12.66-4.11a3.72,3.72,0,0,0,1.09-2.76c0-2.93-2.85-5.28-10.06-5.28s-15,2.93-20,6V81.08a44,44,0,0,1,20.11-5.2c13.33,0,19.19,5.37,19.19,14.75v20.11c0,3.36,2.18,4.78,4.36,4.78a6.85,6.85,0,0,0,3.44-.84M186.46,99.77c-1.92,1.92-5.78,2.68-9.8,3.43-4.36.84-8.88,1.68-11.15,3.94a5.28,5.28,0,0,0-1.51,3.69c0,3.18,2.94,5.28,6.62,5.28a15.84,15.84,0,0,0,10.9-5,17,17,0,0,0,4.94-11.39"/><path class="cls-1" d="M181.8,21.62c-1.74-5.36-7.21-7.5-8.44-13.06a6.89,6.89,0,1,1,13.46-3c1.24,5.56-1.47,11.89-5,16.05"/><path class="cls-1" d="M185.05,26.13c4-4,3.48-9.8,7.91-13.4a6.9,6.9,0,0,1,8.7,10.7c-4.42,3.6-11.3,4-16.61,2.7"/><path class="cls-1" d="M183.66,32.67c5.6.67,9.84-3.4,15.4-2.18A6.89,6.89,0,0,1,196.13,44c-5.57-1.21-10.18-6.33-12.47-11.29"/><path class="cls-1" d="M177.84,32.51c1.73,5.36,7.2,7.5,8.44,13.07a6.9,6.9,0,0,1-13.47,3c-1.24-5.57,1.48-11.9,5-16.06"/><path class="cls-1" d="M174.58,28c-4,3.95-3.48,9.8-7.9,13.39A6.9,6.9,0,1,1,158,30.7c4.43-3.6,11.3-4,16.61-2.69"/><path class="cls-1" d="M176,21.47c-5.6-.68-9.83,3.39-15.4,2.17a6.89,6.89,0,1,1,2.93-13.47c5.57,1.21,10.18,6.33,12.47,11.3"/><polygon points="199.01 112.53 199.01 108.19 197.75 108.19 197.75 107.37 201.16 107.37 201.16 108.19 199.9 108.19 199.9 112.53 199.01 112.53"/><polygon points="204.8 112.07 203.06 109.35 202.59 112.53 201.7 112.53 202.54 107.33 202.68 107.33 204.89 110.76 207.05 107.33 207.19 107.33 208.02 112.53 207.14 112.53 206.67 109.37 204.97 112.07 204.8 112.07"/></g></g></svg>